<?xml version="1.0" encoding="UTF-8"?>
<svg xmlns="http://www.w3.org/2000/svg" width="96" height="16" viewBox="0 0 96 16" fill="none">
  <path d="M64.7276 15.5614C63.3815 15.5797 62.0853 15.0686 61.055 14.1194C59.31 12.5496 59.0275 9.73845 60.4401 7.82179C60.6229 7.58448 60.8223 7.34718 61.055 7.14639C62.0188 6.25195 63.232 5.74084 64.4784 5.70433H64.6445V7.05512C64.6445 7.12814 64.6944 7.1829 64.7609 7.1829C64.8273 7.1829 64.8772 7.12814 64.8772 7.05512V5.70433L65.06 5.72258C66.2898 5.7956 67.4531 6.28846 68.3837 7.16464C70.1286 8.71623 70.4111 11.5273 68.9986 13.444C68.8158 13.6813 68.6163 13.9186 68.3837 14.1194C67.37 15.0503 66.0737 15.5614 64.7276 15.5614Z" fill="#F58C0C"></path>
  <path d="M63.2814 4.18929C62.8825 4.04326 62.5169 3.84247 62.1846 3.56866C61.4534 2.98453 60.8551 2.1266 60.3565 1.01311L60.1571 0.556763L60.5726 0.77581C61.2539 1.12263 61.8854 1.59724 62.4338 2.16311C62.9158 2.67422 63.2648 3.2766 63.4808 3.97025L63.5805 4.29882L63.2814 4.18929Z" fill="#60BE74"></path>
  <path d="M65.0595 7.05514C65.0595 7.21942 64.9266 7.36546 64.777 7.36546C64.6275 7.36546 64.4945 7.21942 64.4945 7.05514V5.90514C63.2814 5.94165 62.1015 6.43451 61.1708 7.31069C59.4924 8.77101 59.2265 11.4726 60.5726 13.3162C60.7554 13.5535 60.9382 13.7726 61.1708 13.9734C62.1679 14.9043 63.4309 15.3972 64.7272 15.3789C66.0234 15.3972 67.2864 14.9043 68.2835 13.9734C69.962 12.4948 70.2279 9.79323 68.8818 7.94958C68.699 7.71228 68.5162 7.49323 68.2835 7.29244C67.3861 6.45276 66.2395 5.9599 65.0595 5.90514V7.05514ZM62.2843 3.40436C62.6 3.65991 62.949 3.8607 63.3312 4.00673C63.1318 3.34959 62.7828 2.76547 62.3341 2.27261C61.8023 1.70674 61.1875 1.25039 60.5227 0.903569C61.0545 2.18134 61.7026 2.94801 62.2843 3.40436ZM63.6636 4.73689C63.0321 4.62737 62.4505 4.33531 61.9353 3.91547C61.1875 3.31309 60.3399 2.25436 59.6918 0.428967C59.6253 0.264682 59.7084 0.0821426 59.858 0.0273809C59.9245 -0.00912696 60.0075 -0.00912696 60.074 0.0273809C61.0711 0.410713 61.9685 1.03135 62.733 1.83452C63.7301 2.92975 63.9461 4.00673 63.996 4.39007C64.0126 4.55435 63.9129 4.71864 63.7467 4.73689C63.7301 4.75515 63.6968 4.75515 63.6636 4.73689ZM65.0595 5.26625C66.389 5.32102 67.652 5.86863 68.6657 6.81784C70.5769 8.53371 70.876 11.6186 69.3139 13.7361C69.1144 13.9916 68.8984 14.2472 68.6657 14.448C67.5689 15.4702 66.173 16.0178 64.7272 15.9996C63.2814 16.0178 61.8854 15.4702 60.7886 14.448C58.8775 12.7321 58.5784 9.64719 60.1405 7.52974C60.3399 7.27419 60.556 7.01863 60.7886 6.81784C61.819 5.85038 63.1318 5.30276 64.4945 5.26625V4.91943C64.4945 4.07975 64.7106 3.24007 65.1426 2.54642C65.5249 1.90753 66.1231 1.48769 66.8045 1.34166C66.954 1.30516 67.1036 1.41468 67.1368 1.59722C67.1701 1.7615 67.0704 1.92579 66.9042 1.9623C66.3724 2.07182 65.9071 2.41864 65.608 2.9115C65.2423 3.51388 65.0595 4.20753 65.0595 4.91943V5.26625Z" fill="#25272E"></path>
  <path d="M16.3342 3.56584L15.3095 3.69902L12.7907 14.9306H10.4768L8.19697 6.39817H8.14574L5.86596 14.9306H3.55202L1.01608 3.69902L0 3.56584V2.00318H4.57664V3.56584L3.44102 3.77005L4.86695 10.8553L4.91818 10.8642L7.2492 2.00318H9.08498L11.4331 10.8642L11.4843 10.8553L12.9017 3.77005L11.7661 3.56584V2.00318H16.3342V3.56584Z" fill="#363F4D"></path>
  <path d="M16.5053 10.0385C16.5053 8.60602 16.8895 7.43402 17.658 6.52247C18.4321 5.605 19.4995 5.14626 20.8599 5.14626C22.2261 5.14626 23.2934 5.60204 24.0619 6.51359C24.836 7.42514 25.2231 8.6001 25.2231 10.0385V10.2249C25.2231 11.6692 24.836 12.8471 24.0619 13.7587C23.2934 14.6643 22.2318 15.1171 20.877 15.1171C19.5051 15.1171 18.4321 14.6643 17.658 13.7587C16.8895 12.8471 16.5053 11.6692 16.5053 10.2249V10.0385ZM18.9985 10.2249C18.9985 11.1009 19.1465 11.8053 19.4425 12.3381C19.7385 12.8649 20.2167 13.1283 20.877 13.1283C21.5202 13.1283 21.9899 12.8619 22.2859 12.3292C22.5875 11.7964 22.7384 11.095 22.7384 10.2249V10.0385C22.7384 9.18609 22.5875 8.49059 22.2859 7.95195C21.9842 7.4133 21.5089 7.14398 20.8599 7.14398C20.211 7.14398 19.7385 7.4133 19.4425 7.95195C19.1465 8.49059 18.9985 9.18609 18.9985 10.0385V10.2249Z" fill="#363F4D"></path>
  <path d="M25.9578 10.0385C25.9578 8.60602 26.342 7.43402 27.1105 6.52247C27.8846 5.605 28.9519 5.14626 30.3124 5.14626C31.6786 5.14626 32.7459 5.60204 33.5143 6.51359C34.2885 7.42514 34.6756 8.6001 34.6756 10.0385V10.2249C34.6756 11.6692 34.2885 12.8471 33.5143 13.7587C32.7459 14.6643 31.6843 15.1171 30.3295 15.1171C28.9576 15.1171 27.8846 14.6643 27.1105 13.7587C26.342 12.8471 25.9578 11.6692 25.9578 10.2249V10.0385ZM28.451 10.2249C28.451 11.1009 28.599 11.8053 28.895 12.3381C29.191 12.8649 29.6692 13.1283 30.3295 13.1283C30.9727 13.1283 31.4423 12.8619 31.7383 12.3292C32.04 11.7964 32.1909 11.095 32.1909 10.2249V10.0385C32.1909 9.18609 32.04 8.49059 31.7383 7.95195C31.4366 7.4133 30.9613 7.14398 30.3124 7.14398C29.6635 7.14398 29.191 7.4133 28.895 7.95195C28.599 8.49059 28.451 9.18609 28.451 10.0385V10.2249Z" fill="#363F4D"></path>
  <path d="M44.7941 6.1318H42.9241L42.5997 4.35605C42.3833 4.21399 42.0674 4.08969 41.6519 3.98314C41.2363 3.8766 40.7952 3.82333 40.3284 3.82333C39.6453 3.82333 39.1159 3.97427 38.7402 4.27614C38.3702 4.5721 38.1852 4.95685 38.1852 5.43038C38.1852 5.8684 38.3788 6.22947 38.7659 6.51359C39.1586 6.79179 39.8332 7.08775 40.7895 7.40146C42.1613 7.79805 43.2002 8.3219 43.906 8.973C44.6176 9.62411 44.9734 10.4794 44.9734 11.539C44.9734 12.6458 44.5521 13.5189 43.7097 14.1582C42.8672 14.7975 41.7572 15.1171 40.3796 15.1171C39.3949 15.1171 38.504 14.9543 37.7071 14.6288C36.9159 14.3032 36.2555 13.8534 35.7262 13.2792V10.5801H37.6559L37.9206 12.418C38.171 12.6311 38.5097 12.8086 38.9366 12.9507C39.3693 13.0868 39.8503 13.1549 40.3796 13.1549C41.0627 13.1549 41.5807 13.0099 41.9337 12.7198C42.2923 12.4298 42.4716 12.0421 42.4716 11.5567C42.4716 11.0595 42.3008 10.66 41.9593 10.3581C41.6234 10.0562 41.0314 9.77209 40.1833 9.50573C38.7089 9.06179 37.5932 8.53499 36.8362 7.92531C36.0791 7.31564 35.7005 6.48103 35.7005 5.4215C35.7005 4.37381 36.1275 3.51849 36.9813 2.85554C37.8352 2.18668 38.9082 1.84336 40.2003 1.82561C41.1566 1.82561 42.0276 1.97655 42.8131 2.27842C43.5987 2.5803 44.259 2.9828 44.7941 3.48593V6.1318Z" fill="#363F4D"></path>
  <path d="M49.3454 2.97097V5.32384H50.9677V7.14398H49.3454V12.0362C49.3454 12.4091 49.4194 12.6754 49.5674 12.8353C49.7154 12.9951 49.9147 13.075 50.1651 13.075C50.3359 13.075 50.4839 13.0691 50.6091 13.0572C50.74 13.0395 50.8852 13.0128 51.0446 12.9773L51.258 14.8507C50.9791 14.9395 50.703 15.0046 50.4298 15.0461C50.1566 15.0934 49.8606 15.1171 49.5418 15.1171C48.6823 15.1171 48.0191 14.8715 47.5523 14.3802C47.0913 13.8889 46.8607 13.1105 46.8607 12.0451V7.14398H45.5031V5.32384H46.8607V2.97097H49.3454Z" fill="#363F4D"></path>
  <path d="M52.0269 13.3769L53.2222 13.1105V7.15286L51.8988 6.8865V5.32384H55.5447L55.6557 6.72668C55.872 6.22947 56.151 5.84176 56.4925 5.56356C56.834 5.28536 57.2297 5.14626 57.6793 5.14626C57.8103 5.14626 57.9469 5.1581 58.0892 5.18178C58.2372 5.19953 58.3596 5.22321 58.4563 5.25281L58.1917 7.61455L57.167 7.58792C56.8027 7.58792 56.501 7.66191 56.262 7.80989C56.0229 7.95787 55.8407 8.168 55.7155 8.44028V13.1105L56.9109 13.3769V14.9306H52.0269V13.3769Z" fill="#363F4D"></path>
  <path d="M71.7161 13.3769L72.9201 13.1105V7.15287L71.5881 6.88651V5.32385H75.4133V13.1105L76.6087 13.3769V14.9307H71.7161V13.3769ZM75.4133 3.02425H72.9201V1.0798H75.4133V3.02425Z" fill="#363F4D"></path>
  <path d="M83.0898 13.7587C82.7995 14.2026 82.4551 14.54 82.0566 14.7708C81.6638 15.0017 81.2141 15.1171 80.7075 15.1171C79.5691 15.1171 78.6839 14.685 78.0521 13.8208C77.4259 12.9566 77.1128 11.8142 77.1128 10.3936V10.2072C77.1128 8.69185 77.4287 7.46955 78.0606 6.54024C78.6924 5.61093 79.5804 5.14627 80.7246 5.14627C81.1857 5.14627 81.6012 5.25282 81.9712 5.46591C82.3412 5.67308 82.6657 5.96904 82.9446 6.35378V2.90883L81.6126 2.64246V1.0798H85.4379V13.1105L86.6333 13.3769V14.9307H83.2776L83.0898 13.7587ZM79.6061 10.3936C79.6061 11.2341 79.7398 11.8971 80.0074 12.3825C80.2806 12.8619 80.7246 13.1016 81.3394 13.1016C81.7037 13.1016 82.0196 13.0247 82.2872 12.8708C82.5547 12.7169 82.7738 12.4949 82.9446 12.2049V8.12953C82.7738 7.82174 82.5547 7.58497 82.2872 7.41923C82.0253 7.24758 81.7151 7.16175 81.3565 7.16175C80.7474 7.16175 80.3034 7.44291 80.0245 8.00523C79.7455 8.56755 79.6061 9.30153 79.6061 10.2072V10.3936Z" fill="#363F4D"></path>
  <path d="M87.5127 14.9307V13.2348L91.5344 8.75105C92.115 8.0585 92.5277 7.47547 92.7724 7.00193C93.0172 6.52248 93.1396 6.07854 93.1396 5.67012C93.1396 5.12556 92.9973 4.68162 92.7127 4.33831C92.4338 3.98907 92.0353 3.81446 91.5173 3.81446C90.9424 3.81446 90.504 4.01867 90.2024 4.42709C89.9063 4.8296 89.7584 5.36824 89.7584 6.04303H87.3334L87.3163 5.98975C87.2879 4.82368 87.655 3.83814 88.4178 3.03313C89.1863 2.2222 90.2194 1.81674 91.5173 1.81674C92.7981 1.81674 93.8056 2.16301 94.5399 2.85555C95.2742 3.5481 95.6414 4.47149 95.6414 5.62573C95.6414 6.40706 95.4336 7.12919 95.0181 7.79214C94.6082 8.45509 93.9251 9.31929 92.9688 10.3847L90.7574 12.8974L90.7744 12.9418H94.002L94.1045 11.6633H96V14.9307H87.5127Z" fill="#363F4D"></path>
</svg>
